<?xml version="1.0" encoding="utf-8"?>
<!-- Generator: Adobe Illustrator 18.1.0, SVG Export Plug-In . SVG Version: 6.00 Build 0)  -->
<svg version="1.1" id="Capa_1" xmlns="http://www.w3.org/2000/svg" xmlns:xlink="http://www.w3.org/1999/xlink" x="0px" y="0px"
	 viewBox="0 0 841.9 595.3" enable-background="new 0 0 841.9 595.3" xml:space="preserve">
<polygon fill="#FFFFFF" stroke="#211915" stroke-miterlimit="10" points="439.4,459.1 250.5,368.2 250.5,228 439.4,319 "/>
<polygon fill="#F2F2F2" stroke="#211915" stroke-miterlimit="10" points="439.4,459.1 628.2,368.2 628.2,228 439.4,319 "/>
<polygon fill="#FFFFFF" stroke="#211915" stroke-miterlimit="10" points="439.4,319 250.5,228 439.4,137.1 628.2,228 "/>
<g>
	<path d="M524.8,356.3l-5.7,23.4l-7.3,3.7l18.5-74.6l8.5-4.3l18.6,55.7L550,364l-5.8-17.5L524.8,356.3z M542.7,340.6l-5.3-16
		c-1.2-3.6-2-7.1-2.8-10.5l-0.2,0.1c-0.8,4.3-1.7,8.7-2.8,13.2l-5.3,21.6L542.7,340.6z"/>
</g>
</svg>
